<svg width="141" height="39" viewBox="0 0 141 39" fill="none" xmlns="http://www.w3.org/2000/svg">
<path d="M1.52 23.2C1.86667 23.44 2.48 23.7333 3.36 24.08C4.24 24.4 5.28 24.56 6.48 24.56C7.52 24.56 8.37333 24.3867 9.04 24.04C9.70667 23.6667 10.2133 23.12 10.56 22.4C10.9333 21.68 11.1733 20.7467 11.28 19.6C11.4133 18.4533 11.48 17.08 11.48 15.48V0.599998H17V15.04C17 17.1733 16.88 19.12 16.64 20.88C16.4 22.64 15.9333 24.16 15.24 25.44C14.5467 26.72 13.4933 27.7067 12.08 28.4C10.6933 29.0933 8.84 29.44 6.52 29.44C5.24 29.44 4.09333 29.2933 3.08 29C2.06667 28.7067 1.13333 28.2667 0.28 27.68L1.52 23.2ZM29.0169 29.4C27.3102 29.4 25.7769 29.12 24.4169 28.56C23.0569 27.9733 21.8969 27.1733 20.9369 26.16C20.0035 25.1467 19.2835 23.9867 18.7769 22.68C18.2702 21.3733 18.0169 20 18.0169 18.56C18.0169 17.0933 18.2702 15.7067 18.7769 14.4C19.2835 13.0933 20.0035 11.9333 20.9369 10.92C21.8969 9.90667 23.0569 9.12 24.4169 8.56C25.7769 7.97333 27.3102 7.68 29.0169 7.68C30.7235 7.68 32.2435 7.97333 33.5769 8.56C34.9369 9.12 36.0969 9.90667 37.0569 10.92C38.0169 11.9333 38.7369 13.0933 39.2169 14.4C39.7235 15.7067 39.9769 17.0933 39.9769 18.56C39.9769 20 39.7235 21.3733 39.2169 22.68C38.7369 23.9867 38.0169 25.1467 37.0569 26.16C36.1235 27.1733 34.9769 27.9733 33.6169 28.56C32.2569 29.12 30.7235 29.4 29.0169 29.4ZM23.5369 18.56C23.5369 19.7867 23.7769 20.88 24.2569 21.84C24.7369 22.7733 25.3902 23.5067 26.2169 24.04C27.0435 24.5733 27.9769 24.84 29.0169 24.84C30.0302 24.84 30.9502 24.5733 31.7769 24.04C32.6035 23.48 33.2569 22.7333 33.7369 21.8C34.2435 20.84 34.4969 19.7467 34.4969 18.52C34.4969 17.32 34.2435 16.24 33.7369 15.28C33.2569 14.32 32.6035 13.5733 31.7769 13.04C30.9502 12.5067 30.0302 12.24 29.0169 12.24C27.9769 12.24 27.0435 12.52 26.2169 13.08C25.3902 13.6133 24.7369 14.36 24.2569 15.32C23.7769 16.2533 23.5369 17.3333 23.5369 18.56ZM50.8747 29.4C49.168 29.4 47.6347 29.12 46.2747 28.56C44.9147 27.9733 43.7547 27.1733 42.7947 26.16C41.8614 25.1467 41.1414 23.9867 40.6347 22.68C40.128 21.3733 39.8747 20 39.8747 18.56C39.8747 17.0933 40.128 15.7067 40.6347 14.4C41.1414 13.0933 41.8614 11.9333 42.7947 10.92C43.7547 9.90667 44.9147 9.12 46.2747 8.56C47.6347 7.97333 49.168 7.68 50.8747 7.68C52.5814 7.68 54.1014 7.97333 55.4347 8.56C56.7947 9.12 57.9547 9.90667 58.9147 10.92C59.8747 11.9333 60.5947 13.0933 61.0747 14.4C61.5814 15.7067 61.8347 17.0933 61.8347 18.56C61.8347 20 61.5814 21.3733 61.0747 22.68C60.5947 23.9867 59.8747 25.1467 58.9147 26.16C57.9814 27.1733 56.8347 27.9733 55.4747 28.56C54.1147 29.12 52.5814 29.4 50.8747 29.4ZM45.3947 18.56C45.3947 19.7867 45.6347 20.88 46.1147 21.84C46.5947 22.7733 47.248 23.5067 48.0747 24.04C48.9014 24.5733 49.8347 24.84 50.8747 24.84C51.888 24.84 52.808 24.5733 53.6347 24.04C54.4614 23.48 55.1147 22.7333 55.5947 21.8C56.1014 20.84 56.3547 19.7467 56.3547 18.52C56.3547 17.32 56.1014 16.24 55.5947 15.28C55.1147 14.32 54.4614 13.5733 53.6347 13.04C52.808 12.5067 51.888 12.24 50.8747 12.24C49.8347 12.24 48.9014 12.52 48.0747 13.08C47.248 13.6133 46.5947 14.36 46.1147 15.32C45.6347 16.2533 45.3947 17.3333 45.3947 18.56ZM75.5325 12.68C73.9058 12.68 72.4525 13 71.1725 13.64C69.8925 14.2533 68.9725 15.1467 68.4125 16.32V29H63.0525V8.04H67.9725V12.52C68.7192 11.08 69.6658 9.94667 70.8125 9.12C71.9592 8.29333 73.1725 7.84 74.4525 7.76C74.7458 7.76 74.9725 7.76 75.1325 7.76C75.2925 7.76 75.4258 7.77333 75.5325 7.8V12.68ZM95.6013 29H90.2413V17.24C90.2413 15.56 89.9479 14.3333 89.3613 13.56C88.7746 12.7867 87.9613 12.4 86.9213 12.4C86.2013 12.4 85.4679 12.5867 84.7213 12.96C84.0013 13.3333 83.3479 13.8533 82.7613 14.52C82.1746 15.16 81.7479 15.9067 81.4813 16.76V29H76.1213V8.04H80.9613V11.92C81.4946 11.0133 82.1746 10.2533 83.0013 9.64C83.8279 9 84.7746 8.52 85.8413 8.2C86.9346 7.85333 88.0813 7.68 89.2813 7.68C90.5879 7.68 91.6546 7.92 92.4813 8.4C93.3346 8.85333 93.9746 9.48 94.4013 10.28C94.8546 11.0533 95.1613 11.9333 95.3213 12.92C95.5079 13.9067 95.6013 14.9067 95.6013 15.92V29ZM107.582 29.4C105.902 29.4 104.382 29.12 103.022 28.56C101.662 27.9733 100.502 27.1867 99.5419 26.2C98.5819 25.1867 97.8352 24.04 97.3019 22.76C96.7952 21.4533 96.5419 20.08 96.5419 18.64C96.5419 16.64 96.9819 14.8133 97.8619 13.16C98.7685 11.5067 100.049 10.1867 101.702 9.2C103.382 8.18666 105.355 7.68 107.622 7.68C109.915 7.68 111.875 8.18666 113.502 9.2C115.129 10.1867 116.369 11.5067 117.222 13.16C118.102 14.7867 118.542 16.5467 118.542 18.44C118.542 18.76 118.529 19.0933 118.502 19.44C118.475 19.76 118.449 20.0267 118.422 20.24H102.222C102.329 21.3067 102.635 22.24 103.142 23.04C103.675 23.84 104.342 24.4533 105.142 24.88C105.969 25.28 106.849 25.48 107.782 25.48C108.849 25.48 109.849 25.2267 110.782 24.72C111.742 24.1867 112.395 23.4933 112.742 22.64L117.342 23.92C116.835 24.9867 116.102 25.9333 115.142 26.76C114.209 27.5867 113.102 28.24 111.822 28.72C110.542 29.1733 109.129 29.4 107.582 29.4ZM102.102 16.84H113.062C112.955 15.7733 112.649 14.8533 112.142 14.08C111.662 13.28 111.022 12.6667 110.222 12.24C109.422 11.7867 108.529 11.56 107.542 11.56C106.582 11.56 105.702 11.7867 104.902 12.24C104.129 12.6667 103.489 13.28 102.982 14.08C102.502 14.8533 102.209 15.7733 102.102 16.84ZM119.183 33.08C119.663 33.1867 120.103 33.28 120.503 33.36C120.93 33.44 121.29 33.48 121.583 33.48C122.09 33.48 122.503 33.3467 122.823 33.08C123.17 32.84 123.503 32.3867 123.823 31.72C124.143 31.08 124.476 30.1733 124.823 29L116.543 8.04H122.103L127.743 23.52L132.703 8.04H137.823L129.023 33.16C128.703 34.0933 128.21 34.9333 127.543 35.68C126.903 36.4533 126.09 37.0533 125.103 37.48C124.143 37.9333 123.063 38.16 121.863 38.16C121.436 38.16 121.01 38.12 120.583 38.04C120.156 37.9867 119.69 37.88 119.183 37.72V33.08ZM135.715 29V23.24H140.115V29H135.715Z" fill="#F77D56"/>
</svg>
